# Blender v2.91.0 OBJ File: ''
# www.blender.org
mtllib scene.mtl
o Plane
v 8.883053 0.000000 0.042060
v 8.883053 0.000000 -8.806097
v 0.034896 0.000000 0.042060
v 0.034896 0.000000 -8.806097
vt 0.000000 0.000000
vt 1.000000 0.000000
vt 1.000000 1.000000
vt 0.000000 1.000000
vn 0.0000 1.0000 0.0000
usemtl None
s off
f 1/1/1 2/2/1 4/3/1 3/4/1
o Plane.001
v 0.074596 -0.101727 -0.005401
v 0.074596 -0.101727 -8.853558
v 0.074596 8.746429 -0.005401
v 0.074596 8.746429 -8.853558
vt 0.000000 0.000000
vt 1.000000 0.000000
vt 1.000000 1.000000
vt 0.000000 1.000000
vn 1.0000 -0.0000 -0.0000
usemtl None
s off
f 5/5/2 6/6/2 8/7/2 7/8/2
o Plane.002
v 8.871652 -0.079867 -0.074466
v 0.023495 -0.079867 -0.074463
v 8.871652 8.768290 -0.074466
v 0.023495 8.768290 -0.074464
vt 0.000000 0.000000
vt 1.000000 0.000000
vt 1.000000 1.000000
vt 0.000000 1.000000
vn -0.0000 -0.0000 -1.0000
usemtl None
s off
f 9/9/3 10/10/3 12/11/3 11/12/3
o Cube_Cube.001
v 2.880191 2.139242 -3.936716
v 2.880191 4.139242 -3.936716
v 0.880191 2.139242 -3.936716
v 0.880191 4.139242 -3.936716
v 2.880191 2.139242 -5.936716
v 2.880191 4.139242 -5.936716
v 0.880191 2.139242 -5.936716
v 0.880191 4.139242 -5.936716
vt 0.375000 0.000000
vt 0.625000 0.000000
vt 0.625000 0.250000
vt 0.375000 0.250000
vt 0.625000 0.500000
vt 0.375000 0.500000
vt 0.625000 0.750000
vt 0.375000 0.750000
vt 0.625000 1.000000
vt 0.375000 1.000000
vt 0.125000 0.500000
vt 0.125000 0.750000
vt 0.875000 0.500000
vt 0.875000 0.750000
vn 0.0000 0.0000 1.0000
vn -1.0000 0.0000 0.0000
vn 0.0000 0.0000 -1.0000
vn 1.0000 0.0000 0.0000
vn 0.0000 -1.0000 0.0000
vn 0.0000 1.0000 0.0000
usemtl None
s off
f 13/13/4 14/14/4 16/15/4 15/16/4
f 15/16/5 16/15/5 20/17/5 19/18/5
f 19/18/6 20/17/6 18/19/6 17/20/6
f 17/20/7 18/19/7 14/21/7 13/22/7
f 15/23/8 19/18/8 17/20/8 13/24/8
f 20/17/9 16/25/9 14/26/9 18/19/9
o Cube.001_Cube.002
v 6.327488 3.267871 -0.579530
v 6.327488 5.267871 -0.579530
v 4.327488 3.267871 -0.579530
v 4.327488 5.267871 -0.579530
v 6.327488 3.267871 -2.579530
v 6.327488 5.267871 -2.579530
v 4.327488 3.267871 -2.579530
v 4.327488 5.267871 -2.579530
vt 0.375000 0.000000
vt 0.625000 0.000000
vt 0.625000 0.250000
vt 0.375000 0.250000
vt 0.625000 0.500000
vt 0.375000 0.500000
vt 0.625000 0.750000
vt 0.375000 0.750000
vt 0.625000 1.000000
vt 0.375000 1.000000
vt 0.125000 0.500000
vt 0.125000 0.750000
vt 0.875000 0.500000
vt 0.875000 0.750000
vn 0.0000 0.0000 1.0000
vn -1.0000 0.0000 0.0000
vn 0.0000 0.0000 -1.0000
vn 1.0000 0.0000 0.0000
vn 0.0000 -1.0000 0.0000
vn 0.0000 1.0000 0.0000
usemtl None
s off
f 21/27/10 22/28/10 24/29/10 23/30/10
f 23/30/11 24/29/11 28/31/11 27/32/11
f 27/32/12 28/31/12 26/33/12 25/34/12
f 25/34/13 26/33/13 22/35/13 21/36/13
f 23/37/14 27/32/14 25/34/14 21/38/14
f 28/31/15 24/39/15 22/40/15 26/33/15
o Cube.002_Cube.003
v 6.578065 0.492050 -2.945639
v 6.578065 2.492050 -2.945639
v 4.578065 0.492050 -2.945639
v 4.578065 2.492050 -2.945639
v 6.578065 0.492050 -4.945639
v 6.578065 2.492050 -4.945639
v 4.578065 0.492050 -4.945639
v 4.578065 2.492050 -4.945639
vt 0.375000 0.000000
vt 0.625000 0.000000
vt 0.625000 0.250000
vt 0.375000 0.250000
vt 0.625000 0.500000
vt 0.375000 0.500000
vt 0.625000 0.750000
vt 0.375000 0.750000
vt 0.625000 1.000000
vt 0.375000 1.000000
vt 0.125000 0.500000
vt 0.125000 0.750000
vt 0.875000 0.500000
vt 0.875000 0.750000
vn 0.0000 0.0000 1.0000
vn -1.0000 0.0000 0.0000
vn 0.0000 0.0000 -1.0000
vn 1.0000 0.0000 0.0000
vn 0.0000 -1.0000 0.0000
vn 0.0000 1.0000 0.0000
usemtl None
s off
f 29/41/16 30/42/16 32/43/16 31/44/16
f 31/44/17 32/43/17 36/45/17 35/46/17
f 35/46/18 36/45/18 34/47/18 33/48/18
f 33/48/19 34/47/19 30/49/19 29/50/19
f 31/51/20 35/46/20 33/48/20 29/52/20
f 36/45/21 32/53/21 30/54/21 34/47/21
