# Blender v2.91.0 OBJ File: ''
# www.blender.org
mtllib shadowTest2.mtl
o Plane
v -0.000000 3.553631 2.313073
v 0.000000 -3.553631 2.313073
v -0.000000 3.553631 -4.794189
v 0.000000 -3.553631 -4.794189
vt 0.000000 0.000000
vt 1.000000 0.000000
vt 1.000000 1.000000
vt 0.000000 1.000000
vn 1.0000 0.0000 0.0000
usemtl None
s off
f 1/1/1 2/2/1 4/3/1 3/4/1
o Plane.001
v 1.745277 1.012614 -0.227944
v 1.745277 -1.012614 -0.227944
v 1.745277 1.012614 -2.253172
v 1.745277 -1.012614 -2.253172
vt 0.000000 0.000000
vt 1.000000 0.000000
vt 1.000000 1.000000
vt 0.000000 1.000000
vn 1.0000 0.0000 0.0000
usemtl None
s off
f 5/5/2 6/6/2 8/7/2 7/8/2
o Plane.002
v 2.916795 1.012614 0.364745
v 2.916795 -1.012614 0.364745
v 2.916795 1.012614 -1.660483
v 2.916795 -1.012614 -1.660483
vt 0.000000 0.000000
vt 1.000000 0.000000
vt 1.000000 1.000000
vt 0.000000 1.000000
vn 1.0000 0.0000 0.0000
usemtl None
s off
f 9/9/3 10/10/3 12/11/3 11/12/3
o Plane.003
v 4.089849 1.012614 1.083300
v 4.089849 -1.012614 1.083300
v 4.089849 1.012614 -0.941928
v 4.089849 -1.012614 -0.941928
vt 0.000000 0.000000
vt 1.000000 0.000000
vt 1.000000 1.000000
vt 0.000000 1.000000
vn 1.0000 0.0000 0.0000
usemtl None
s off
f 13/13/4 14/14/4 16/15/4 15/16/4
