# Blender v2.91.0 OBJ File: ''
# www.blender.org
mtllib shadowTest.mtl
o Cube
v 0.963307 3.173104 -3.048667
v 0.963307 1.173104 -3.048667
v 2.963307 3.173104 -3.048667
v 2.963307 1.173104 -3.048667
v 0.963308 3.173104 -1.048667
v 0.963308 1.173104 -1.048667
v 2.963308 3.173104 -1.048667
v 2.963308 1.173104 -1.048667
vt 0.625000 0.500000
vt 0.875000 0.500000
vt 0.875000 0.750000
vt 0.625000 0.750000
vt 0.375000 0.750000
vt 0.625000 1.000000
vt 0.375000 1.000000
vt 0.375000 0.000000
vt 0.625000 0.000000
vt 0.625000 0.250000
vt 0.375000 0.250000
vt 0.125000 0.500000
vt 0.375000 0.500000
vt 0.125000 0.750000
vn 0.0000 1.0000 -0.0000
vn 1.0000 0.0000 -0.0000
vn 0.0000 0.0000 1.0000
vn 0.0000 -1.0000 0.0000
vn -0.0000 0.0000 -1.0000
vn -1.0000 0.0000 0.0000
usemtl Material
s off
f 1/1/1 5/2/1 7/3/1 3/4/1
f 4/5/2 3/4/2 7/6/2 8/7/2
f 8/8/3 7/9/3 5/10/3 6/11/3
f 6/12/4 2/13/4 4/5/4 8/14/4
f 2/13/5 1/1/5 3/4/5 4/5/5
f 6/11/6 5/10/6 1/1/6 2/13/6
o Plane
v 0.012149 -7.022714 7.010643
v 0.012145 -7.022714 -7.034785
v 0.012150 7.022715 7.010643
v 0.012146 7.022715 -7.034785
vt 0.000000 0.000000
vt 1.000000 0.000000
vt 1.000000 1.000000
vt 0.000000 1.000000
vn 1.0000 -0.0000 -0.0000
usemtl None
s off
f 9/15/7 10/16/7 12/17/7 11/18/7
o Cube.001
v 3.774560 2.539195 -2.414758
v 3.774560 1.807014 -2.414758
v 4.506742 2.539195 -2.414758
v 4.506742 1.807014 -2.414758
v 3.774560 2.539195 -1.682576
v 3.774560 1.807014 -1.682576
v 4.506742 2.539195 -1.682576
v 4.506742 1.807014 -1.682576
vt 0.625000 0.500000
vt 0.875000 0.500000
vt 0.875000 0.750000
vt 0.625000 0.750000
vt 0.375000 0.750000
vt 0.625000 1.000000
vt 0.375000 1.000000
vt 0.375000 0.000000
vt 0.625000 0.000000
vt 0.625000 0.250000
vt 0.375000 0.250000
vt 0.125000 0.500000
vt 0.375000 0.500000
vt 0.125000 0.750000
vn 0.0000 1.0000 0.0000
vn 1.0000 0.0000 0.0000
vn 0.0000 0.0000 1.0000
vn 0.0000 -1.0000 0.0000
vn 0.0000 0.0000 -1.0000
vn -1.0000 0.0000 0.0000
usemtl Material
s off
f 13/19/8 17/20/8 19/21/8 15/22/8
f 16/23/9 15/22/9 19/24/9 20/25/9
f 20/26/10 19/27/10 17/28/10 18/29/10
f 18/30/11 14/31/11 16/23/11 20/32/11
f 14/31/12 13/19/12 15/22/12 16/23/12
f 18/29/13 17/28/13 13/19/13 14/31/13
