# Blender v2.91.0 OBJ File: 'deleteMe.blend'
# www.blender.org
mtllib treeTest.mtl
o Plane
v -0.500001 8.500000 9.500000
v -0.499999 -9.500000 9.500000
v -0.500001 8.500000 -8.500000
v -0.499999 -9.500000 -8.500000
vt 0.000000 0.000000
vt 1.000000 0.000000
vt 1.000000 1.000000
vt 0.000000 1.000000
vn 1.0000 0.0000 0.0000
usemtl None
s off
f 1/1/1 2/2/1 4/3/1 3/4/1
o Plane.001
v 8.499999 8.500001 0.500000
v 8.500001 -9.499999 0.500000
v -9.500001 8.499999 0.500000
v -9.499999 -9.500001 0.500000
vt 0.000000 0.000000
vt 1.000000 0.000000
vt 1.000000 1.000000
vt 0.000000 1.000000
vn -0.0000 -0.0000 -1.0000
usemtl None
s off
f 5/5/2 6/6/2 8/7/2 7/8/2
o Plane.002
v 8.500000 -0.499999 9.500000
v -9.500000 -0.500001 9.500000
v 8.500000 -0.499999 -8.500000
v -9.500000 -0.500001 -8.500000
vt 0.000000 0.000000
vt 1.000000 0.000000
vt 1.000000 1.000000
vt 0.000000 1.000000
vn 0.0000 -1.0000 0.0000
usemtl None
s off
f 9/9/3 10/10/3 12/11/3 11/12/3
o Cube
v 1.750000 1.750000 -1.750000
v 1.750000 3.250000 -1.750000
v 1.750000 1.750000 -3.250000
v 1.750000 3.250000 -3.250000
v 3.250000 1.750000 -1.750000
v 3.250000 3.250000 -1.750000
v 3.250000 1.750000 -3.250000
v 3.250000 3.250000 -3.250000
vt 0.375000 0.000000
vt 0.625000 0.000000
vt 0.625000 0.250000
vt 0.375000 0.250000
vt 0.625000 0.500000
vt 0.375000 0.500000
vt 0.625000 0.750000
vt 0.375000 0.750000
vt 0.625000 1.000000
vt 0.375000 1.000000
vt 0.125000 0.500000
vt 0.125000 0.750000
vt 0.875000 0.500000
vt 0.875000 0.750000
vn -1.0000 0.0000 0.0000
vn 0.0000 0.0000 -1.0000
vn 1.0000 0.0000 0.0000
vn 0.0000 0.0000 1.0000
vn 0.0000 -1.0000 0.0000
vn 0.0000 1.0000 0.0000
usemtl None
s off
f 13/13/4 14/14/4 16/15/4 15/16/4
f 15/16/5 16/15/5 20/17/5 19/18/5
f 19/18/6 20/17/6 18/19/6 17/20/6
f 17/20/7 18/19/7 14/21/7 13/22/7
f 15/23/8 19/18/8 17/20/8 13/24/8
f 20/17/9 16/25/9 14/26/9 18/19/9
